<?xml version="1.0" encoding="UTF-8" standalone="no"?>
<!DOCTYPE svg PUBLIC "-//W3C//DTD SVG 1.1//EN"
 "http://www.w3.org/Graphics/SVG/1.1/DTD/svg11.dtd">
<!-- Generated by graphviz version 2.43.0 (0)
 -->
<!-- Title: Form_State_Diagram Pages: 1 -->
<svg width="576pt" height="40pt"
 viewBox="0.00 0.00 576.00 39.57" xmlns="http://www.w3.org/2000/svg" xmlns:xlink="http://www.w3.org/1999/xlink">
<g id="graph0" class="graph" transform="scale(0.32 0.32) rotate(0) translate(4 118)">
<title>Form_State_Diagram</title>
<polygon fill="white" stroke="transparent" points="-4,4 -4,-118 1771.75,-118 1771.75,4 -4,4"/>
<!-- DRAFT -->
<g id="node1" class="node">
<title>DRAFT</title>
<ellipse fill="none" stroke="black" cx="43.55" cy="-25" rx="43.59" ry="18"/>
<text text-anchor="middle" x="43.55" y="-21.3" font-family="Times,serif" font-size="14.00">DRAFT</text>
</g>
<!-- PENDING_APPROVAL -->
<g id="node2" class="node">
<title>PENDING_APPROVAL</title>
<ellipse fill="none" stroke="black" cx="432.18" cy="-66" rx="113.18" ry="18"/>
<text text-anchor="middle" x="432.18" y="-62.3" font-family="Times,serif" font-size="14.00">PENDING_APPROVAL</text>
</g>
<!-- DRAFT&#45;&gt;PENDING_APPROVAL -->
<g id="edge1" class="edge">
<title>DRAFT&#45;&gt;PENDING_APPROVAL</title>
<path fill="none" stroke="black" d="M85.92,-29.39C143.09,-35.45 248.14,-46.59 327.41,-55"/>
<polygon fill="black" stroke="black" points="327.12,-58.48 337.43,-56.06 327.86,-51.52 327.12,-58.48"/>
<text text-anchor="middle" x="203.09" y="-54.8" font-family="Times,serif" font-size="14.00">Submit → Notify Approvers</text>
</g>
<!-- PENDING_PUBLISH -->
<g id="node3" class="node">
<title>PENDING_PUBLISH</title>
<ellipse fill="none" stroke="black" cx="942.77" cy="-18" rx="105.88" ry="18"/>
<text text-anchor="middle" x="942.77" y="-14.3" font-family="Times,serif" font-size="14.00">PENDING_PUBLISH</text>
</g>
<!-- PENDING_APPROVAL&#45;&gt;PENDING_PUBLISH -->
<g id="edge2" class="edge">
<title>PENDING_APPROVAL&#45;&gt;PENDING_PUBLISH</title>
<path fill="none" stroke="black" d="M503.86,-52.06C523.08,-48.67 543.92,-45.34 563.27,-43 652.28,-32.23 753.66,-25.84 829.08,-22.22"/>
<polygon fill="black" stroke="black" points="829.25,-25.72 839.08,-21.75 828.93,-18.73 829.25,-25.72"/>
<text text-anchor="middle" x="674.77" y="-46.8" font-family="Times,serif" font-size="14.00">Both Approve → Notify Creator</text>
</g>
<!-- PENDING_PUBLISH&#45;&gt;DRAFT -->
<g id="edge6" class="edge">
<title>PENDING_PUBLISH&#45;&gt;DRAFT</title>
<path fill="none" stroke="black" d="M836.79,-18.82C644.44,-20.32 242.01,-23.46 97.57,-24.59"/>
<polygon fill="black" stroke="black" points="97.19,-21.09 87.22,-24.67 97.24,-28.09 97.19,-21.09"/>
<text text-anchor="middle" x="432.18" y="-25.8" font-family="Times,serif" font-size="14.00">Change Content</text>
</g>
<!-- ACTIVE -->
<g id="node4" class="node">
<title>ACTIVE</title>
<ellipse fill="none" stroke="black" cx="1437.42" cy="-69" rx="46.29" ry="18"/>
<text text-anchor="middle" x="1437.42" y="-65.3" font-family="Times,serif" font-size="14.00">ACTIVE</text>
</g>
<!-- PENDING_PUBLISH&#45;&gt;ACTIVE -->
<g id="edge3" class="edge">
<title>PENDING_PUBLISH&#45;&gt;ACTIVE</title>
<path fill="none" stroke="black" d="M1047.08,-14.49C1134.93,-13.76 1263.86,-18.03 1373.27,-43 1381.75,-44.93 1390.55,-47.89 1398.79,-51.13"/>
<polygon fill="black" stroke="black" points="1397.58,-54.42 1408.16,-55.01 1400.26,-47.95 1397.58,-54.42"/>
<text text-anchor="middle" x="1236.27" y="-46.8" font-family="Times,serif" font-size="14.00">Publish</text>
</g>
<!-- ACTIVE&#45;&gt;PENDING_APPROVAL -->
<g id="edge7" class="edge">
<title>ACTIVE&#45;&gt;PENDING_APPROVAL</title>
<path fill="none" stroke="black" d="M1391.05,-68.86C1244.31,-68.43 779.07,-67.03 555.48,-66.37"/>
<polygon fill="black" stroke="black" points="555.36,-62.87 545.35,-66.34 555.34,-69.87 555.36,-62.87"/>
<text text-anchor="middle" x="942.77" y="-70.8" font-family="Times,serif" font-size="14.00">Change Expiration → Notify Approvers</text>
</g>
<!-- EXPIRED -->
<g id="node5" class="node">
<title>EXPIRED</title>
<ellipse fill="none" stroke="black" cx="1713.16" cy="-92" rx="54.69" ry="18"/>
<text text-anchor="middle" x="1713.16" y="-88.3" font-family="Times,serif" font-size="14.00">EXPIRED</text>
</g>
<!-- ACTIVE&#45;&gt;EXPIRED -->
<g id="edge4" class="edge">
<title>ACTIVE&#45;&gt;EXPIRED</title>
<path fill="none" stroke="black" d="M1482.7,-72.72C1528,-76.53 1598.78,-82.47 1649.75,-86.76"/>
<polygon fill="black" stroke="black" points="1649.73,-90.27 1659.99,-87.62 1650.31,-83.29 1649.73,-90.27"/>
<text text-anchor="middle" x="1571.06" y="-88.8" font-family="Times,serif" font-size="14.00">On Expiration Date</text>
</g>
<!-- EXPIRED&#45;&gt;PENDING_APPROVAL -->
<g id="edge5" class="edge">
<title>EXPIRED&#45;&gt;PENDING_APPROVAL</title>
<path fill="none" stroke="black" d="M1662.55,-99.05C1655.19,-99.86 1647.69,-100.55 1640.56,-101 1578.91,-104.86 1563.34,-101.66 1501.56,-101 1191.6,-97.67 1114.17,-93.19 804.27,-86 697.16,-83.51 670.18,-87.07 563.27,-80 553.58,-79.36 543.5,-78.54 533.43,-77.62"/>
<polygon fill="black" stroke="black" points="533.66,-74.13 523.38,-76.68 533,-81.1 533.66,-74.13"/>
<text text-anchor="middle" x="1236.27" y="-102.8" font-family="Times,serif" font-size="14.00">Extend Expiration → Notify Approvers</text>
</g>
</g>
</svg>
